<svg xmlns="http://www.w3.org/2000/svg" version="1.1" xmlns:xlink="http://www.w3.org/1999/xlink" xmlns:svgjs="http://svgjs.dev/svgjs" width="1440" height="560" preserveAspectRatio="none" viewBox="0 0 1440 560"><g mask="url(&quot;#SvgjsMask1006&quot;)" fill="none"><path d="M1654.34 316.92C1534.27 318.87 1446.46 476.34 1198.42 468.12 950.38 459.9 911.32-21.1 742.5-75.56" stroke="rgba(194, 133, 51, 0.58)" stroke-width="2"></path><path d="M1541.7 427.31C1431.72 425.46 1359.28 300 1124.59 287.31 889.9 274.62 834.19 8 707.48-6.22" stroke="rgba(194, 133, 51, 0.58)" stroke-width="2"></path><path d="M1695.03 396.77C1565.58 392.69 1481.47 206.33 1217.8 195.17 954.13 184.01 874.98-46.79 740.57-54.15" stroke="rgba(194, 133, 51, 0.58)" stroke-width="2"></path><path d="M1487.99 162.44C1326.67 163.09 1175.09 291.7 855.7 291.24 536.32 290.78 399.32-10.9 223.42-19.12" stroke="rgba(194, 133, 51, 0.58)" stroke-width="2"></path><path d="M1557.63 289.31C1375.42 291.3 1132.3 494.68 857.18 490.91 582.06 487.14 650.38 29.5 506.96-38.37" stroke="rgba(194, 133, 51, 0.58)" stroke-width="2"></path></g><defs><mask id="SvgjsMask1006"><rect width="1440" height="560" fill="#ffffff"></rect></mask></defs></svg>